<?xml version="1.0" standalone="no"?>
<!DOCTYPE svg PUBLIC "-//W3C//DTD SVG 20010904//EN"
 "http://www.w3.org/TR/2001/REC-SVG-20010904/DTD/svg10.dtd">
<svg version="1.0" xmlns="http://www.w3.org/2000/svg"
 width="700.000000pt" height="700.000000pt" viewBox="0 0 700.000000 700.000000"
 preserveAspectRatio="xMidYMid meet">
<metadata>
Created by potrace 1.11, written by Peter Selinger 2001-2013
</metadata>
<g transform="translate(0.000000,700.000000) scale(0.100000,-0.100000)"
fill="#000000" stroke="none">
<path d="M3278 6995 c-1 -1 -37 -5 -78 -9 -671 -54 -1308 -306 -1865 -738
-106 -82 -393 -356 -483 -460 -318 -369 -579 -855 -716 -1328 -40 -140 -92
-391 -102 -490 -3 -36 -8 -67 -9 -70 -17 -28 -25 -484 -12 -660 54 -766 369
-1503 888 -2080 35 -39 65 -75 67 -79 1 -5 -216 -227 -483 -494 l-485 -485 0
-51 0 -51 52 0 53 0 487 487 486 486 89 -78 c126 -111 129 -114 218 -181 79
-60 321 -224 331 -224 2 0 23 -12 46 -26 134 -85 459 -229 663 -294 92 -29
294 -84 347 -94 134 -25 199 -37 233 -41 22 -2 56 -7 75 -10 191 -27 624 -27
840 0 35 4 181 26 205 31 11 2 36 7 55 10 77 13 311 75 410 108 335 111 663
276 935 470 351 251 658 567 889 916 250 376 405 743 512 1205 5 21 39 224 48
285 28 188 29 722 2 890 -5 28 -17 112 -22 150 -4 34 -50 241 -69 315 -80 307
-236 667 -416 953 -90 143 -161 241 -293 402 -6 8 -42 49 -79 90 l-68 74 486
486 485 485 0 53 0 52 -51 0 -51 0 -485 -485 c-423 -423 -487 -484 -502 -473
-8 7 -27 23 -41 36 -50 46 -246 208 -280 232 -19 13 -37 27 -40 30 -9 11 -233
156 -290 188 -30 16 -82 45 -115 64 -92 52 -316 151 -456 202 -256 92 -533
156 -779 181 -36 4 -78 9 -95 12 -33 5 -531 13 -537 8z m416 -499 c72 -4 132
-9 135 -10 3 -2 33 -6 66 -10 33 -3 74 -9 90 -12 454 -83 799 -218 1159 -451
55 -36 103 -68 106 -72 3 -4 34 -28 70 -54 36 -26 87 -65 113 -87 48 -39 48
-40 20 -41 -15 0 -751 0 -1635 -1 l-1608 0 0 -1124 0 -1124 33 -1 c17 0 286
-1 596 -1 l563 1 -28 -31 c-46 -49 -2202 -2204 -2218 -2217 -14 -11 -15 10
-14 181 2 190 2 195 -22 228 -13 19 -27 37 -30 40 -12 10 -117 167 -167 250
-110 183 -223 435 -287 637 -29 92 -72 260 -80 313 -3 19 -8 46 -11 60 -11 52
-36 237 -41 310 -5 74 -5 370 1 435 51 597 251 1132 590 1583 l48 64 0 198 0
198 187 -1 187 0 64 53 c202 169 462 329 714 442 115 52 373 139 481 163 109
24 270 55 314 60 30 4 66 9 80 10 14 2 79 7 145 11 66 3 121 7 122 8 3 2 130
-2 257 -8z m1156 -951 c14 -2 39 -7 55 -11 98 -19 238 -78 322 -135 l42 -29
-76 -75 -76 -75 -31 20 c-113 74 -229 110 -376 116 -332 13 -612 -193 -703
-516 -55 -195 -35 -421 51 -590 l30 -58 -78 -80 c-91 -93 -83 -95 -148 28 -57
106 -83 188 -109 340 -8 48 -7 204 1 265 23 165 72 297 157 421 144 208 372
346 635 383 59 8 257 6 304 -4z m-1305 -37 c4 -3 7 -111 6 -164 l-1 -30 -447
0 -448 0 -3 -297 -2 -297 67 -1 c38 0 227 0 421 0 l352 0 0 -100 0 -99 -420 0
-420 0 0 -405 0 -405 -104 0 c-91 0 -104 2 -108 18 -2 9 -3 413 -3 897 l1 880
89 5 c93 5 1015 3 1020 -2z m2366 -220 c185 -248 334 -534 436 -833 18 -55 34
-102 34 -105 1 -3 3 -9 4 -15 33 -112 79 -334 90 -430 3 -27 8 -63 10 -80 15
-108 21 -411 10 -530 -2 -27 -7 -79 -10 -115 -3 -36 -7 -76 -10 -90 -2 -14 -6
-36 -9 -50 -7 -49 -18 -115 -21 -131 -2 -9 -15 -63 -29 -121 -96 -399 -280
-782 -538 -1120 l-74 -97 1 -236 c0 -129 -2 -235 -5 -236 -3 0 -118 -1 -255
-2 l-251 -2 -59 -43 c-236 -171 -496 -302 -795 -402 -112 -37 -304 -88 -365
-96 -16 -3 -50 -9 -75 -14 -42 -8 -68 -12 -180 -25 -110 -12 -175 -16 -315
-16 -136 0 -264 6 -321 16 -12 2 -48 7 -80 11 -33 3 -63 8 -69 9 -5 1 -32 5
-60 9 -134 21 -474 117 -570 161 -16 7 -55 23 -85 35 -142 55 -461 236 -574
325 l-38 30 -244 1 c-134 0 -246 3 -249 5 -2 3 537 545 1198 1206 l1202 1202
1070 -1 c589 0 1081 1 1095 1 l25 1 0 954 c0 525 4 952 8 949 5 -3 49 -59 98
-125z m-491 -63 c133 -170 203 -375 204 -600 0 -161 -19 -268 -73 -404 -106
-264 -359 -473 -641 -530 -103 -20 -125 -22 -220 -23 -164 0 -298 29 -437 97
-80 39 -213 132 -221 153 -1 4 31 40 72 81 l74 73 55 -45 c142 -115 294 -167
477 -161 186 6 337 70 466 199 156 155 227 347 219 586 -6 158 -56 308 -143
424 l-30 40 76 78 c42 42 79 77 82 77 3 -1 21 -21 40 -45z"/>
</g>
</svg>
